# xmcd
#
# Track frame offsets: 
#        150
#        23921
#        43090
#        59991
#        84311
#        99241
#        115814
#        130219
#        151183
#        166922
#        179314
#        201320
#        233159
#        250677
#        267070
#        283749
#        302552
#        315131
#        326070
#
# Disc length: 4554 seconds
#
# Revision: 0
# Processed by: cddbd v1.5.1PL2 Copyright (c) Steve Scherf et al.
# Submitted via: ExactAudioCopy v0.95b3
#
DISCID=fb11c813
DTITLE=Al Green  - The Immortal Soul of Al Green - [CD4]
DYEAR=1900
DGENRE=
TTITLE0=Full Of Fire
TTITLE1=I'd Fly Away
TTITLE2=That's The Way It Is
TTITLE3=Together Again
TTITLE4=Let It Shine
TTITLE5=Have A Good Time
TTITLE6=Keep Me Cryin'
TTITLE7=Nothing Takes The Place Of You
TTITLE8=I Tried To Tell Myself
TTITLE9=The Truth Marches On
TTITLE10=Belle
TTITLE11=Georgia Boy
TTITLE12=Chariots Of Fire
TTITLE13=Loving You
TTITLE14=All In All
TTITLE15=To Sir With Love
TTITLE16=Wait Here
TTITLE17=King Of All
TTITLE18=Starting All Over Again
EXTD=
EXTT0=
EXTT1=
EXTT2=
EXTT3=
EXTT4=
EXTT5=
EXTT6=
EXTT7=
EXTT8=
EXTT9=
EXTT10=
EXTT11=
EXTT12=
EXTT13=
EXTT14=
EXTT15=
EXTT16=
EXTT17=
EXTT18=
PLAYORDER=
